<svg xmlns="http://www.w3.org/2000/svg" width="18" height="24" fill="none"><path fill="#454545" d="M15.252 6.644h-.883V5.368A5.375 5.375 0 0 0 8.999 0a5.375 5.375 0 0 0-5.368 5.369v1.275h-.884A2.609 2.609 0 0 0 .142 9.249v12.145A2.609 2.609 0 0 0 2.747 24h12.505a2.609 2.609 0 0 0 2.606-2.606V9.25a2.609 2.609 0 0 0-2.606-2.605Zm-9.92-1.276A3.673 3.673 0 0 1 9 1.7a3.673 3.673 0 0 1 3.668 3.668v1.276H5.331V5.368Zm10.826 16.026c0 .5-.406.906-.906.906H2.747a.907.907 0 0 1-.905-.906V9.25c0-.5.406-.905.905-.905h.884v1.192a1.29 1.29 0 0 0-.45.975 1.3 1.3 0 1 0 2.6 0c0-.39-.177-.737-.45-.975V8.344h7.337v1.192a1.29 1.29 0 0 0-.449.975 1.3 1.3 0 1 0 2.599 0c0-.39-.176-.737-.45-.975V8.344h.884c.5 0 .906.406.906.905v12.145Z"/></svg>