<svg xmlns="http://www.w3.org/2000/svg" width="14" height="14" fill="none"><path fill="#828181" d="M7.138 14h-.14a48.664 48.664 0 0 1-3.097-.085c-.904-.055-1.73-.368-2.387-.904C.88 12.494.447 11.795.227 10.933c-.191-.75-.201-1.487-.211-2.2C.009 8.224 0 7.618 0 7.002c.001-.618.009-1.224.016-1.735.01-.712.02-1.449.211-2.199C.447 2.205.88 1.506 1.514.99 2.172.453 2.997.14 3.901.085c.986-.06 2-.087 3.1-.085a48.974 48.974 0 0 1 3.097.085c.905.055 1.73.368 2.387.904.635.517 1.068 1.216 1.287 2.078.192.75.202 1.487.212 2.2.007.51.014 1.116.015 1.732V7c0 .616-.008 1.222-.015 1.733-.01.712-.02 1.448-.212 2.199-.22.862-.652 1.561-1.287 2.078-.657.536-1.482.849-2.386.904-.945.057-1.915.085-2.961.085Zm-.14-1.094c1.08.003 2.071-.025 3.034-.083.684-.042 1.276-.264 1.762-.66.449-.366.758-.87.919-1.5.159-.625.168-1.296.177-1.944.007-.508.014-1.11.016-1.719-.002-.61-.009-1.211-.016-1.719-.009-.648-.018-1.319-.177-1.944-.161-.63-.47-1.135-.92-1.5-.485-.396-1.077-.618-1.76-.66A47.789 47.789 0 0 0 7 1.094c-1.08-.003-2.07.024-3.034.083-.683.042-1.276.264-1.761.66-.45.365-.758.87-.92 1.5-.158.625-.168 1.296-.177 1.944-.006.508-.014 1.11-.015 1.72.001.608.009 1.21.015 1.718.01.648.019 1.319.178 1.944.16.63.47 1.134.919 1.5.485.396 1.078.618 1.761.66a47.49 47.49 0 0 0 3.031.083Zm-.026-2.488A3.422 3.422 0 0 1 3.554 7a3.422 3.422 0 0 1 3.418-3.418A3.422 3.422 0 0 1 10.39 7a3.422 3.422 0 0 1-3.418 3.418Zm0-5.742A2.327 2.327 0 0 0 4.648 7a2.327 2.327 0 0 0 2.324 2.324A2.327 2.327 0 0 0 9.297 7a2.327 2.327 0 0 0-2.325-2.324Zm3.801-2.188a.82.82 0 1 0 0 1.64.82.82 0 0 0 0-1.64Z"/></svg>