<svg xmlns="http://www.w3.org/2000/svg" width="72" height="72" fill="none"><path fill="#454545" stroke="#454545" d="M47.63 26.277a1.377 1.377 0 0 0-.966-.4c-.36 0-.712.146-.967.4-.254.255-.4.607-.4.967s.146.712.4.966c.255.254.607.4.967.4s.712-.146.966-.4c.255-.254.401-.607.401-.966 0-.36-.146-.713-.4-.967ZM43.405 46.28c-1.96 0-3.554-1.39-3.554-3.1 0-1.708 1.594-3.098 3.554-3.098 1.96 0 3.553 1.39 3.553 3.099a1.367 1.367 0 0 0 2.735 0c0-2.78-2.11-5.112-4.921-5.693v-.137a1.367 1.367 0 0 0-2.734 0v.137c-2.812.581-4.921 2.912-4.921 5.693 0 3.216 2.82 5.833 6.288 5.833 1.96 0 3.553 1.39 3.553 3.098 0 1.71-1.594 3.1-3.553 3.1-1.96 0-3.554-1.39-3.554-3.1a1.367 1.367 0 0 0-2.734 0c0 2.781 2.109 5.112 4.92 5.693v.347a1.367 1.367 0 0 0 2.735 0v-.347c2.812-.58 4.92-2.912 4.92-5.693 0-3.216-2.82-5.833-6.287-5.833Z"/><path fill="#454545" stroke="#454545" d="m61.894 27.273-8.09-10.113 4.053-7.955c.89-1.745.545-3.744-.876-5.091-1.422-1.348-3.436-1.584-5.132-.603a1.589 1.589 0 0 1-1.788-.14C46.197.22 40.585.216 36.707 3.369a1.59 1.59 0 0 1-1.79.142c-1.696-.982-3.71-.745-5.132.603-1.422 1.347-1.766 3.346-.876 5.091l4.066 7.982-4.712 5.89a1.367 1.367 0 0 0 2.135 1.708l4.857-6.073h10.042v3.837a1.367 1.367 0 0 0 2.734 0v-3.837h2.085V32.37a1.367 1.367 0 0 0 2.735 0V20.345l6.907 8.636a38.975 38.975 0 0 1 8.508 24.256c0 8.283-6.739 15.022-15.022 15.022H33.556c-4.95 0-9.465-2.362-12.28-6.369 5.023-2.651 8.314-5.342 10.235-8.34 2.098-3.274 2.337-6.517 2.42-10.112V32.047c0-.534-.31-1.02-.796-1.242l-15.098-6.946a1.366 1.366 0 0 0-1.143 0L1.796 30.805A1.367 1.367 0 0 0 1 32.047v11.391c.083 3.595.322 6.838 2.42 10.113 2.307 3.6 6.588 6.756 13.473 9.934a1.367 1.367 0 0 0 1.145 0c.261-.12.517-.24.77-.361a17.866 17.866 0 0 0 5.884 5.501 17.753 17.753 0 0 0 8.864 2.368h19.688c9.79 0 17.756-7.965 17.756-17.756a41.718 41.718 0 0 0-9.106-25.964ZM51.339 15.978H35.428l-4.083-8.014c-.498-.977.12-1.675.321-1.866.201-.19.933-.77 1.88-.22a4.344 4.344 0 0 0 4.896-.395c2.868-2.331 7.027-2.328 9.892.008a4.34 4.34 0 0 0 4.885.386c.949-.55 1.68.03 1.88.221.202.191.82.89.322 1.866l-4.082 8.014ZM17.466 60.735C3.998 54.38 3.869 49.28 3.734 43.39V32.923l13.732-6.317 13.73 6.317V43.39c-.134 5.89-.263 10.99-13.73 17.344Z"/><path fill="#454545" stroke="#454545" d="M26.195 39.12a1.367 1.367 0 0 0-1.933 0L16.6 46.78l-3.244-3.243a1.368 1.368 0 0 0-1.933 1.934l4.21 4.21a1.363 1.363 0 0 0 1.934 0l8.628-8.628c.534-.534.534-1.4 0-1.934Z"/></svg>