<svg xmlns="http://www.w3.org/2000/svg" width="72" height="72" fill="none"><path fill="#454545" stroke="#454545" d="m67.809 44.705 2.002-2.002a3.238 3.238 0 0 0 0-4.573 3.214 3.214 0 0 0-2.287-.947 3.21 3.21 0 0 0-1.794.543l-.422-1.417 2.168-2.168a3.237 3.237 0 0 0 0-4.572 3.236 3.236 0 0 0-4.258-.274l-2.568-8.624c1.026-.988 2.008-1.95 2.934-2.875 2.669-2.67 4.839-5.494 6.11-7.955 2.149-4.16 1.25-6.383.117-7.515-1.132-1.133-3.356-2.032-7.516.117-2.46 1.27-5.285 3.44-7.954 6.11-.926.926-1.888 1.908-2.875 2.934L42.84 8.918a3.237 3.237 0 0 0-.273-4.257 3.237 3.237 0 0 0-4.572 0l-2.168 2.168-1.417-.422a3.212 3.212 0 0 0 .542-1.795c0-.864-.336-1.676-.947-2.286a3.237 3.237 0 0 0-4.572 0l-2.002 2.002-10.206-3.04a1.032 1.032 0 0 0-1.024.26l-2.627 2.627a1.042 1.042 0 0 0 .12 1.562l25.75 18.847c-5.806 6.546-11.4 13.1-15.347 17.783l-7.575-2.914a1.032 1.032 0 0 0-1.1.234L12.31 42.8a1.032 1.032 0 0 0 0 1.46l15.567 15.567a1.042 1.042 0 0 0 1.46 0l3.113-3.113c.288-.289.38-.72.233-1.101l-2.913-7.574c4.683-3.948 11.236-9.54 17.783-15.347l2.045 2.795c.364.497 1.1.56 1.545.138.371-.353.423-.944.121-1.356l-2.162-2.955a460.625 460.625 0 0 0 9.87-9.042l9.723 32.639-1.34 1.34L53.99 37.995a1.032 1.032 0 1 0-1.665 1.22L66.4 58.441a1.042 1.042 0 0 0 1.562.12l2.627-2.627c.269-.268.368-.661.26-1.024l-3.04-10.206ZM39.456 6.12a1.18 1.18 0 0 1 1.653 0 1.17 1.17 0 0 1 0 1.654l-.483.484-2.55-.76 1.38-1.378Zm-8.563-2.335a1.17 1.17 0 0 1 1.654 1.654l-.318.318-2.548-.759 1.212-1.213Zm-15.008.997 1.341-1.34 32.64 9.722a463.725 463.725 0 0 0-9.044 9.871L15.885 4.782Zm.524 36.839 6.283 2.416a927.959 927.959 0 0 0-3.498 4.188L14.5 43.53l1.91-1.91Zm4.251 8.07c3.598-4.34 22.613-27.151 35.14-39.68 2.486-2.485 5.2-4.576 7.443-5.734 1.684-.871 3.938-1.662 5.109-.492 1.17 1.17.378 3.425-.492 5.109-1.159 2.244-3.25 4.956-5.735 7.442-12.527 12.527-35.339 31.543-39.68 35.14l-1.785-1.785Zm9.856 6.037-1.909 1.91-4.695-4.696c.858-.712 2.311-1.92 4.188-3.497l2.416 6.283ZM66.698 39.59a1.17 1.17 0 0 1 1.654 0 1.17 1.17 0 0 1 0 1.654l-1.213 1.213-.76-2.548.319-.319Zm-2.335-8.561a1.171 1.171 0 0 1 1.654 0c.45.45.45 1.203 0 1.654l-1.38 1.378-.758-2.549.484-.483ZM62.945 60.57l-8.806 8.805c-.375.376-.4.997-.055 1.4.386.451 1.095.48 1.515.06l8.806-8.806a1.032 1.032 0 1 0-1.46-1.46Z"/><path fill="#454545" stroke="#454545" d="M60.001 57.625a1.031 1.031 0 1 0-1.459-1.459l-5.504 5.504c-.375.376-.4.996-.055 1.4.386.45 1.095.479 1.515.06L60 57.624ZM56.7 52.122a1.032 1.032 0 1 0-1.46-1.46l-3.853 3.853c-.375.375-.4.996-.054 1.4.385.451 1.094.48 1.514.06l3.852-3.853ZM11.568 8.282a1.033 1.033 0 0 0-1.46 0L1.303 17.09a1.031 1.031 0 0 0 0 1.46 1.043 1.043 0 0 0 1.46 0l8.806-8.807a1.033 1.033 0 0 0 0-1.46ZM15.97 12.686a1.031 1.031 0 0 0-1.458 0L9.008 18.19c-.376.375-.4.996-.055 1.4.386.45 1.094.479 1.514.059l5.504-5.504a1.032 1.032 0 0 0 0-1.46ZM16.162 21.3a1.042 1.042 0 0 0 1.46 0l3.853-3.852a1.033 1.033 0 0 0-1.46-1.46l-3.853 3.853a1.033 1.033 0 0 0 0 1.46Z"/></svg>