<svg xmlns="http://www.w3.org/2000/svg" width="51" height="70" fill="none"><path fill="#454545" d="M48.882 20.67h-6.961v-4.216C41.92 7.381 34.539 0 25.467 0 16.394 0 9.013 7.381 9.013 16.454v4.215H2.05A2.05 2.05 0 0 0 0 22.72v45.23A2.05 2.05 0 0 0 2.05 70h46.832a2.05 2.05 0 0 0 2.051-2.05V22.72a2.05 2.05 0 0 0-2.05-2.05Zm-35.768-4.216c0-6.811 5.541-12.352 12.353-12.352 6.81 0 12.352 5.54 12.352 12.352v4.215h-3.874v-4.457c0-4.675-3.803-8.478-8.478-8.478s-8.479 3.803-8.479 8.478v4.457h-3.874v-4.215Zm16.73 4.215H21.09v-4.457a4.382 4.382 0 0 1 4.377-4.377 4.382 4.382 0 0 1 4.376 4.377v4.457ZM8.01 48.122H4.1v-5.575h3.91v5.575ZM4.1 52.224h3.91v5.575H4.1v-5.575Zm3.91-13.778H4.1V32.87h3.91v5.575Zm38.82 27.452H4.102V61.9h5.96a2.05 2.05 0 0 0 2.052-2.05V30.82a2.05 2.05 0 0 0-2.051-2.05h-5.96V24.77h42.73v41.127Z"/><path fill="#454545" d="M28.557 42.283c-1.887-.667-3.975-1.473-5.147-2.393-.377-.295-.54-.968-.408-1.673.137-.722.622-1.597 1.576-1.884 1.957-.59 3.3.193 3.787.556a2.05 2.05 0 0 0 2.456-3.284 8.279 8.279 0 0 0-3.116-1.392v-.874a2.05 2.05 0 0 0-4.102 0v1.008c-.07.02-.138.038-.208.059-2.27.683-3.965 2.62-4.423 5.052-.422 2.238.308 4.406 1.906 5.66 1.322 1.036 3.15 1.915 6.312 3.032 2.13.754 2.084 2.479 1.965 3.185-.24 1.43-1.443 2.975-3.515 2.989-2.021.012-2.652-.087-4.206-1.104a2.05 2.05 0 1 0-2.246 3.433c1.674 1.095 2.906 1.535 4.415 1.693v.982a2.05 2.05 0 0 0 4.101 0V56.15a7.433 7.433 0 0 0 3.099-1.713 7.786 7.786 0 0 0 2.397-4.421c.578-3.44-1.288-6.547-4.643-7.733Z"/></svg>