<svg xmlns="http://www.w3.org/2000/svg" width="18" height="14" fill="none"><path fill="#828181" d="M17.23 1.657a7.366 7.366 0 0 1-2.035.558A3.513 3.513 0 0 0 16.75.263a7.06 7.06 0 0 1-2.24.855A3.531 3.531 0 0 0 8.4 3.534c0 .28.024.549.082.805A9.999 9.999 0 0 1 1.2.644 3.556 3.556 0 0 0 .716 2.43c0 1.223.63 2.307 1.57 2.935A3.489 3.489 0 0 1 .688 4.93v.039a3.549 3.549 0 0 0 2.83 3.47c-.287.08-.6.117-.926.117-.226 0-.454-.013-.669-.06a3.566 3.566 0 0 0 3.301 2.46 7.098 7.098 0 0 1-4.38 1.507c-.29 0-.567-.013-.845-.048A9.945 9.945 0 0 0 5.42 14c6.5 0 10.053-5.385 10.053-10.052 0-.156-.005-.307-.013-.457a7.047 7.047 0 0 0 1.77-1.834Z"/></svg>