<svg xmlns="http://www.w3.org/2000/svg" width="21" height="14" fill="none"><path fill="#828181" d="M19.498 1.35C18.946.366 18.346.185 17.126.116 15.906.034 12.84 0 10.184 0c-2.66 0-5.728.034-6.946.116C2.02.186 1.419.366.862 1.349.292 2.33 0 4.021 0 6.996v.01c0 2.963.293 4.666.862 5.637.557.983 1.157 1.161 2.375 1.244 1.219.071 4.286.113 6.947.113 2.657 0 5.723-.042 6.943-.112 1.22-.083 1.82-.26 2.373-1.243.573-.971.864-2.674.864-5.637v-.011c0-2.976-.29-4.667-.866-5.648ZM7.636 10.817V3.182L14 7l-6.364 3.818Z"/></svg>